<svg width="257" height="118" viewBox="0 0 257 118" fill="none" xmlns="http://www.w3.org/2000/svg">
<path d="M58.6975 46.5L90.5 24L63 8M44 72L16 56.5V77L2 87V31L103.5 87V32L88.5 42.5V63.5L17.5 23L43 8M44 72L87.5 96C87.5 96 73.1974 105.078 62.5 111M44 72L15.5 94.5C15.5 94.5 32.6002 104.848 43.5 111.23" stroke="#0AC05E" stroke-width="4" stroke-linecap="round"/>
<path d="M29 84C30.2 85.6 42.6667 92.6667 48.5 96.5M71.5 87.5L57.5 96.5" stroke="#0AC05E" stroke-width="4"/>
<path d="M48.5 21.5L32 31M58.5 21L77 33.5" stroke="#0AC05E" stroke-width="4"/>
<circle cx="53" cy="12" r="10" stroke="#0AC05E" stroke-width="4"/>
<circle cx="53" cy="106" r="10" stroke="#0AC05E" stroke-width="4"/>
<path d="M157.977 28.4545V75H149.477L129.227 45.7045H128.886V75H119.045V28.4545H127.682L147.773 57.7273H148.182V28.4545H157.977ZM208.881 51.7273C208.881 56.803 207.919 61.1212 205.994 64.6818C204.085 68.2424 201.479 70.9621 198.176 72.8409C194.888 74.7045 191.191 75.6364 187.085 75.6364C182.949 75.6364 179.237 74.697 175.949 72.8182C172.661 70.9394 170.063 68.2197 168.153 64.6591C166.244 61.0985 165.29 56.7879 165.29 51.7273C165.29 46.6515 166.244 42.3333 168.153 38.7727C170.063 35.2121 172.661 32.5 175.949 30.6364C179.237 28.7576 182.949 27.8182 187.085 27.8182C191.191 27.8182 194.888 28.7576 198.176 30.6364C201.479 32.5 204.085 35.2121 205.994 38.7727C207.919 42.3333 208.881 46.6515 208.881 51.7273ZM198.903 51.7273C198.903 48.4394 198.411 45.6667 197.426 43.4091C196.456 41.1515 195.085 39.4394 193.312 38.2727C191.54 37.1061 189.464 36.5227 187.085 36.5227C184.706 36.5227 182.631 37.1061 180.858 38.2727C179.085 39.4394 177.706 41.1515 176.722 43.4091C175.752 45.6667 175.267 48.4394 175.267 51.7273C175.267 55.0152 175.752 57.7879 176.722 60.0455C177.706 62.303 179.085 64.0152 180.858 65.1818C182.631 66.3485 184.706 66.9318 187.085 66.9318C189.464 66.9318 191.54 66.3485 193.312 65.1818C195.085 64.0152 196.456 62.303 197.426 60.0455C198.411 57.7879 198.903 55.0152 198.903 51.7273ZM223.21 28.4545L232.597 44.3182H232.96L242.392 28.4545H253.506L239.301 51.7273L253.824 75H242.506L232.96 59.1136H232.597L223.051 75H211.778L226.347 51.7273L212.051 28.4545H223.21Z" fill="#526D64"/>
<path d="M134.189 85.75H131.679C131.531 85.0281 131.271 84.3938 130.9 83.8473C130.535 83.3008 130.09 82.842 129.564 82.4709C129.044 82.093 128.467 81.8097 127.833 81.6207C127.199 81.4318 126.538 81.3374 125.849 81.3374C124.594 81.3374 123.458 81.6545 122.439 82.2887C121.427 82.9229 120.62 83.8574 120.02 85.0922C119.426 86.3269 119.129 87.8416 119.129 89.6364C119.129 91.4311 119.426 92.9458 120.02 94.1806C120.62 95.4153 121.427 96.3498 122.439 96.984C123.458 97.6183 124.594 97.9354 125.849 97.9354C126.538 97.9354 127.199 97.8409 127.833 97.652C128.467 97.4631 129.044 97.1831 129.564 96.812C130.09 96.4341 130.535 95.9719 130.9 95.4254C131.271 94.8722 131.531 94.2379 131.679 93.5227H134.189C134 94.582 133.656 95.53 133.157 96.3667C132.657 97.2033 132.037 97.9151 131.294 98.5021C130.552 99.0824 129.719 99.5243 128.795 99.8279C127.877 100.132 126.895 100.283 125.849 100.283C124.082 100.283 122.51 99.8516 121.133 98.9879C119.757 98.1243 118.674 96.8963 117.884 95.304C117.095 93.7116 116.7 91.8224 116.7 89.6364C116.7 87.4503 117.095 85.5611 117.884 83.9688C118.674 82.3764 119.757 81.1484 121.133 80.2848C122.51 79.4212 124.082 78.9893 125.849 78.9893C126.895 78.9893 127.877 79.1412 128.795 79.4448C129.719 79.7484 130.552 80.1937 131.294 80.7807C132.037 81.361 132.657 82.0694 133.157 82.9061C133.656 83.736 134 84.6839 134.189 85.75ZM138.245 100V79.2727H145.248C146.868 79.2727 148.197 79.5494 149.236 80.1026C150.275 80.6491 151.044 81.4015 151.543 82.3596C152.043 83.3176 152.292 84.4073 152.292 85.6286C152.292 86.8498 152.043 87.9327 151.543 88.8773C151.044 89.8219 150.278 90.5641 149.246 91.1039C148.214 91.6369 146.895 91.9034 145.289 91.9034H139.621V89.6364H145.208C146.314 89.6364 147.205 89.4744 147.88 89.1506C148.561 88.8267 149.054 88.3679 149.357 87.7741C149.668 87.1737 149.823 86.4585 149.823 85.6286C149.823 84.7986 149.668 84.0733 149.357 83.4526C149.047 82.8319 148.551 82.3528 147.87 82.0154C147.188 81.6713 146.287 81.4993 145.167 81.4993H140.755V100H138.245ZM148.001 90.6889L153.102 100H150.187L145.167 90.6889H148.001ZM156.475 100V79.2727H168.984V81.4993H158.985V88.5028H168.336V90.7294H158.985V97.7734H169.146V100H156.475ZM174.358 100H171.727L179.338 79.2727H181.928L189.539 100H186.908L180.714 82.5518H180.552L174.358 100ZM175.33 91.9034H185.936V94.13H175.33V91.9034ZM189.213 81.4993V79.2727H204.758V81.4993H198.241V100H195.731V81.4993H189.213ZM211.142 79.2727V100H208.632V79.2727H211.142ZM233.663 89.6364C233.663 91.8224 233.268 93.7116 232.479 95.304C231.69 96.8963 230.607 98.1243 229.23 98.9879C227.854 99.8516 226.282 100.283 224.514 100.283C222.746 100.283 221.174 99.8516 219.798 98.9879C218.421 98.1243 217.338 96.8963 216.549 95.304C215.76 93.7116 215.365 91.8224 215.365 89.6364C215.365 87.4503 215.76 85.5611 216.549 83.9688C217.338 82.3764 218.421 81.1484 219.798 80.2848C221.174 79.4212 222.746 78.9893 224.514 78.9893C226.282 78.9893 227.854 79.4212 229.23 80.2848C230.607 81.1484 231.69 82.3764 232.479 83.9688C233.268 85.5611 233.663 87.4503 233.663 89.6364ZM231.234 89.6364C231.234 87.8416 230.934 86.3269 230.333 85.0922C229.74 83.8574 228.933 82.9229 227.915 82.2887C226.902 81.6545 225.769 81.3374 224.514 81.3374C223.259 81.3374 222.122 81.6545 221.103 82.2887C220.091 82.9229 219.285 83.8574 218.684 85.0922C218.091 86.3269 217.794 87.8416 217.794 89.6364C217.794 91.4311 218.091 92.9458 218.684 94.1806C219.285 95.4153 220.091 96.3498 221.103 96.984C222.122 97.6183 223.259 97.9354 224.514 97.9354C225.769 97.9354 226.902 97.6183 227.915 96.984C228.933 96.3498 229.74 95.4153 230.333 94.1806C230.934 92.9458 231.234 91.4311 231.234 89.6364ZM254.32 79.2727V100H251.891L240.596 83.7259H240.393V100H237.883V79.2727H240.312L251.648 95.5874H251.85V79.2727H254.32Z" fill="#526D64"/>
</svg>
